<svg width="14" height="14" viewBox="0 0 14 14" fill="none" xmlns="http://www.w3.org/2000/svg">
<path d="M7.49996 1.66602C7.49996 1.38987 7.2761 1.16602 6.99996 1.16602C6.72382 1.16602 6.49996 1.38987 6.49996 1.66602L6.49996 6.49935H1.66663C1.39048 6.49935 1.16663 6.72321 1.16663 6.99935C1.16663 7.27549 1.39048 7.49935 1.66663 7.49935H6.49996V12.3327C6.49996 12.6088 6.72382 12.8327 6.99996 12.8327C7.2761 12.8327 7.49996 12.6088 7.49996 12.3327V7.49935H12.3333C12.6094 7.49935 12.8333 7.27549 12.8333 6.99935C12.8333 6.72321 12.6094 6.49935 12.3333 6.49935H7.49996L7.49996 1.66602Z" fill="#222222" stroke="black" stroke-linecap="round"/>
</svg>
